<mxfile host="app.diagrams.net" agent="Mozilla/5.0 (Windows NT 10.0; Win64; x64) AppleWebKit/537.36 (KHTML, like Gecko) Chrome/131.0.0.0 Safari/537.36" version="25.0.3">
  <diagram id="C5RBs43oDa-KdzZeNtuy" name="Page-1">
    <mxGraphModel dx="1400" dy="743" grid="1" gridSize="10" guides="1" tooltips="1" connect="1" arrows="1" fold="1" page="1" pageScale="1" pageWidth="827" pageHeight="1169" math="0" shadow="0">
      <root>
        <mxCell id="WIyWlLk6GJQsqaUBKTNV-0" />
        <mxCell id="WIyWlLk6GJQsqaUBKTNV-1" parent="WIyWlLk6GJQsqaUBKTNV-0" />
        <mxCell id="WTj9P_NQEaG9EgnuYuKt-76" value="TicketingController" style="swimlane;fontStyle=1;align=center;verticalAlign=top;childLayout=stackLayout;horizontal=1;startSize=25.400000678168404;horizontalStack=0;resizeParent=1;resizeParentMax=0;resizeLast=0;collapsible=0;marginBottom=0;" vertex="1" parent="WIyWlLk6GJQsqaUBKTNV-1">
          <mxGeometry x="20" y="65" width="452" height="233.4000006781684" as="geometry" />
        </mxCell>
        <mxCell id="WTj9P_NQEaG9EgnuYuKt-77" value="- TicketingService ticketingService" style="text;strokeColor=none;fillColor=none;align=left;verticalAlign=top;spacingLeft=4;spacingRight=4;overflow=hidden;rotatable=0;points=[[0,0.5],[1,0.5]];portConstraint=eastwest;" vertex="1" parent="WTj9P_NQEaG9EgnuYuKt-76">
          <mxGeometry y="25.400000678168404" width="452" height="25" as="geometry" />
        </mxCell>
        <mxCell id="WTj9P_NQEaG9EgnuYuKt-78" value="- Long id" style="text;strokeColor=none;fillColor=none;align=left;verticalAlign=top;spacingLeft=4;spacingRight=4;overflow=hidden;rotatable=0;points=[[0,0.5],[1,0.5]];portConstraint=eastwest;" vertex="1" parent="WTj9P_NQEaG9EgnuYuKt-76">
          <mxGeometry y="50.400000678168404" width="452" height="25" as="geometry" />
        </mxCell>
        <mxCell id="WTj9P_NQEaG9EgnuYuKt-79" style="line;strokeWidth=1;fillColor=none;align=left;verticalAlign=middle;spacingTop=-1;spacingLeft=3;spacingRight=3;rotatable=0;labelPosition=right;points=[];portConstraint=eastwest;strokeColor=inherit;" vertex="1" parent="WTj9P_NQEaG9EgnuYuKt-76">
          <mxGeometry y="75.4000006781684" width="452" height="8" as="geometry" />
        </mxCell>
        <mxCell id="WTj9P_NQEaG9EgnuYuKt-80" value="+Configuration configureSystem(Configuration configuration)" style="text;strokeColor=none;fillColor=none;align=left;verticalAlign=top;spacingLeft=4;spacingRight=4;overflow=hidden;rotatable=0;points=[[0,0.5],[1,0.5]];portConstraint=eastwest;" vertex="1" parent="WTj9P_NQEaG9EgnuYuKt-76">
          <mxGeometry y="83.4000006781684" width="452" height="25" as="geometry" />
        </mxCell>
        <mxCell id="WTj9P_NQEaG9EgnuYuKt-81" value="+String startSystem()" style="text;strokeColor=none;fillColor=none;align=left;verticalAlign=top;spacingLeft=4;spacingRight=4;overflow=hidden;rotatable=0;points=[[0,0.5],[1,0.5]];portConstraint=eastwest;" vertex="1" parent="WTj9P_NQEaG9EgnuYuKt-76">
          <mxGeometry y="108.4000006781684" width="452" height="25" as="geometry" />
        </mxCell>
        <mxCell id="WTj9P_NQEaG9EgnuYuKt-82" value="+String stopSystem()" style="text;strokeColor=none;fillColor=none;align=left;verticalAlign=top;spacingLeft=4;spacingRight=4;overflow=hidden;rotatable=0;points=[[0,0.5],[1,0.5]];portConstraint=eastwest;" vertex="1" parent="WTj9P_NQEaG9EgnuYuKt-76">
          <mxGeometry y="133.4000006781684" width="452" height="25" as="geometry" />
        </mxCell>
        <mxCell id="WTj9P_NQEaG9EgnuYuKt-83" value="+String resetSystem()" style="text;strokeColor=none;fillColor=none;align=left;verticalAlign=top;spacingLeft=4;spacingRight=4;overflow=hidden;rotatable=0;points=[[0,0.5],[1,0.5]];portConstraint=eastwest;" vertex="1" parent="WTj9P_NQEaG9EgnuYuKt-76">
          <mxGeometry y="158.4000006781684" width="452" height="25" as="geometry" />
        </mxCell>
        <mxCell id="WTj9P_NQEaG9EgnuYuKt-84" value="+int getTicketCount()" style="text;strokeColor=none;fillColor=none;align=left;verticalAlign=top;spacingLeft=4;spacingRight=4;overflow=hidden;rotatable=0;points=[[0,0.5],[1,0.5]];portConstraint=eastwest;" vertex="1" parent="WTj9P_NQEaG9EgnuYuKt-76">
          <mxGeometry y="183.4000006781684" width="452" height="25" as="geometry" />
        </mxCell>
        <mxCell id="WTj9P_NQEaG9EgnuYuKt-85" value="+String getLatestTransaction()" style="text;strokeColor=none;fillColor=none;align=left;verticalAlign=top;spacingLeft=4;spacingRight=4;overflow=hidden;rotatable=0;points=[[0,0.5],[1,0.5]];portConstraint=eastwest;" vertex="1" parent="WTj9P_NQEaG9EgnuYuKt-76">
          <mxGeometry y="208.4000006781684" width="452" height="25" as="geometry" />
        </mxCell>
        <mxCell id="WTj9P_NQEaG9EgnuYuKt-86" value="Configuration" style="swimlane;fontStyle=1;align=center;verticalAlign=top;childLayout=stackLayout;horizontal=1;startSize=24.087499618530273;horizontalStack=0;resizeParent=1;resizeParentMax=0;resizeLast=0;collapsible=0;marginBottom=0;" vertex="1" parent="WIyWlLk6GJQsqaUBKTNV-1">
          <mxGeometry x="1035" y="107" width="444" height="392.0874996185303" as="geometry" />
        </mxCell>
        <mxCell id="WTj9P_NQEaG9EgnuYuKt-87" value="- Long id" style="text;strokeColor=none;fillColor=none;align=left;verticalAlign=top;spacingLeft=4;spacingRight=4;overflow=hidden;rotatable=0;points=[[0,0.5],[1,0.5]];portConstraint=eastwest;" vertex="1" parent="WTj9P_NQEaG9EgnuYuKt-86">
          <mxGeometry y="24.087499618530273" width="444" height="24" as="geometry" />
        </mxCell>
        <mxCell id="WTj9P_NQEaG9EgnuYuKt-88" value="- int totalTickets" style="text;strokeColor=none;fillColor=none;align=left;verticalAlign=top;spacingLeft=4;spacingRight=4;overflow=hidden;rotatable=0;points=[[0,0.5],[1,0.5]];portConstraint=eastwest;" vertex="1" parent="WTj9P_NQEaG9EgnuYuKt-86">
          <mxGeometry y="48.08749961853027" width="444" height="24" as="geometry" />
        </mxCell>
        <mxCell id="WTj9P_NQEaG9EgnuYuKt-89" value="- int ticketReleaseRate" style="text;strokeColor=none;fillColor=none;align=left;verticalAlign=top;spacingLeft=4;spacingRight=4;overflow=hidden;rotatable=0;points=[[0,0.5],[1,0.5]];portConstraint=eastwest;" vertex="1" parent="WTj9P_NQEaG9EgnuYuKt-86">
          <mxGeometry y="72.08749961853027" width="444" height="24" as="geometry" />
        </mxCell>
        <mxCell id="WTj9P_NQEaG9EgnuYuKt-90" value="- int customerRetrievalRate" style="text;strokeColor=none;fillColor=none;align=left;verticalAlign=top;spacingLeft=4;spacingRight=4;overflow=hidden;rotatable=0;points=[[0,0.5],[1,0.5]];portConstraint=eastwest;" vertex="1" parent="WTj9P_NQEaG9EgnuYuKt-86">
          <mxGeometry y="96.08749961853027" width="444" height="24" as="geometry" />
        </mxCell>
        <mxCell id="WTj9P_NQEaG9EgnuYuKt-91" value="- int maxTicketCapacity" style="text;strokeColor=none;fillColor=none;align=left;verticalAlign=top;spacingLeft=4;spacingRight=4;overflow=hidden;rotatable=0;points=[[0,0.5],[1,0.5]];portConstraint=eastwest;" vertex="1" parent="WTj9P_NQEaG9EgnuYuKt-86">
          <mxGeometry y="120.08749961853027" width="444" height="24" as="geometry" />
        </mxCell>
        <mxCell id="WTj9P_NQEaG9EgnuYuKt-92" style="line;strokeWidth=1;fillColor=none;align=left;verticalAlign=middle;spacingTop=-1;spacingLeft=3;spacingRight=3;rotatable=0;labelPosition=right;points=[];portConstraint=eastwest;strokeColor=inherit;" vertex="1" parent="WTj9P_NQEaG9EgnuYuKt-86">
          <mxGeometry y="144.08749961853027" width="444" height="8" as="geometry" />
        </mxCell>
        <mxCell id="WTj9P_NQEaG9EgnuYuKt-93" value="+Long getId()" style="text;strokeColor=none;fillColor=none;align=left;verticalAlign=top;spacingLeft=4;spacingRight=4;overflow=hidden;rotatable=0;points=[[0,0.5],[1,0.5]];portConstraint=eastwest;" vertex="1" parent="WTj9P_NQEaG9EgnuYuKt-86">
          <mxGeometry y="152.08749961853027" width="444" height="24" as="geometry" />
        </mxCell>
        <mxCell id="WTj9P_NQEaG9EgnuYuKt-94" value="+void setId(Long id)" style="text;strokeColor=none;fillColor=none;align=left;verticalAlign=top;spacingLeft=4;spacingRight=4;overflow=hidden;rotatable=0;points=[[0,0.5],[1,0.5]];portConstraint=eastwest;" vertex="1" parent="WTj9P_NQEaG9EgnuYuKt-86">
          <mxGeometry y="176.08749961853027" width="444" height="24" as="geometry" />
        </mxCell>
        <mxCell id="WTj9P_NQEaG9EgnuYuKt-95" value="+int getTotalTickets()" style="text;strokeColor=none;fillColor=none;align=left;verticalAlign=top;spacingLeft=4;spacingRight=4;overflow=hidden;rotatable=0;points=[[0,0.5],[1,0.5]];portConstraint=eastwest;" vertex="1" parent="WTj9P_NQEaG9EgnuYuKt-86">
          <mxGeometry y="200.08749961853027" width="444" height="24" as="geometry" />
        </mxCell>
        <mxCell id="WTj9P_NQEaG9EgnuYuKt-96" value="+void setTotalTickets(int totalTickets)" style="text;strokeColor=none;fillColor=none;align=left;verticalAlign=top;spacingLeft=4;spacingRight=4;overflow=hidden;rotatable=0;points=[[0,0.5],[1,0.5]];portConstraint=eastwest;" vertex="1" parent="WTj9P_NQEaG9EgnuYuKt-86">
          <mxGeometry y="224.08749961853027" width="444" height="24" as="geometry" />
        </mxCell>
        <mxCell id="WTj9P_NQEaG9EgnuYuKt-97" value="+int getTicketReleaseRate()" style="text;strokeColor=none;fillColor=none;align=left;verticalAlign=top;spacingLeft=4;spacingRight=4;overflow=hidden;rotatable=0;points=[[0,0.5],[1,0.5]];portConstraint=eastwest;" vertex="1" parent="WTj9P_NQEaG9EgnuYuKt-86">
          <mxGeometry y="248.08749961853027" width="444" height="24" as="geometry" />
        </mxCell>
        <mxCell id="WTj9P_NQEaG9EgnuYuKt-98" value="+void setTicketReleaseRate(int ticketReleaseRate)" style="text;strokeColor=none;fillColor=none;align=left;verticalAlign=top;spacingLeft=4;spacingRight=4;overflow=hidden;rotatable=0;points=[[0,0.5],[1,0.5]];portConstraint=eastwest;" vertex="1" parent="WTj9P_NQEaG9EgnuYuKt-86">
          <mxGeometry y="272.0874996185303" width="444" height="24" as="geometry" />
        </mxCell>
        <mxCell id="WTj9P_NQEaG9EgnuYuKt-99" value="+int getCustomerRetrievalRate()" style="text;strokeColor=none;fillColor=none;align=left;verticalAlign=top;spacingLeft=4;spacingRight=4;overflow=hidden;rotatable=0;points=[[0,0.5],[1,0.5]];portConstraint=eastwest;" vertex="1" parent="WTj9P_NQEaG9EgnuYuKt-86">
          <mxGeometry y="296.0874996185303" width="444" height="24" as="geometry" />
        </mxCell>
        <mxCell id="WTj9P_NQEaG9EgnuYuKt-100" value="+void setCustomerRetrievalRate(int customerRetrievalRate)" style="text;strokeColor=none;fillColor=none;align=left;verticalAlign=top;spacingLeft=4;spacingRight=4;overflow=hidden;rotatable=0;points=[[0,0.5],[1,0.5]];portConstraint=eastwest;" vertex="1" parent="WTj9P_NQEaG9EgnuYuKt-86">
          <mxGeometry y="320.0874996185303" width="444" height="24" as="geometry" />
        </mxCell>
        <mxCell id="WTj9P_NQEaG9EgnuYuKt-101" value="+int getMaxTicketCapacity()" style="text;strokeColor=none;fillColor=none;align=left;verticalAlign=top;spacingLeft=4;spacingRight=4;overflow=hidden;rotatable=0;points=[[0,0.5],[1,0.5]];portConstraint=eastwest;" vertex="1" parent="WTj9P_NQEaG9EgnuYuKt-86">
          <mxGeometry y="344.0874996185303" width="444" height="24" as="geometry" />
        </mxCell>
        <mxCell id="WTj9P_NQEaG9EgnuYuKt-102" value="+void setMaxTicketCapacity(int maxTicketCapacity)" style="text;strokeColor=none;fillColor=none;align=left;verticalAlign=top;spacingLeft=4;spacingRight=4;overflow=hidden;rotatable=0;points=[[0,0.5],[1,0.5]];portConstraint=eastwest;" vertex="1" parent="WTj9P_NQEaG9EgnuYuKt-86">
          <mxGeometry y="368.0874996185303" width="444" height="24" as="geometry" />
        </mxCell>
        <mxCell id="WTj9P_NQEaG9EgnuYuKt-103" value="Ticket" style="swimlane;fontStyle=1;align=center;verticalAlign=top;childLayout=stackLayout;horizontal=1;startSize=26.91428484235491;horizontalStack=0;resizeParent=1;resizeParentMax=0;resizeLast=0;collapsible=0;marginBottom=0;" vertex="1" parent="WIyWlLk6GJQsqaUBKTNV-1">
          <mxGeometry x="189" y="351" width="115" height="93.9142848423549" as="geometry" />
        </mxCell>
        <mxCell id="WTj9P_NQEaG9EgnuYuKt-104" value="- int id" style="text;strokeColor=none;fillColor=none;align=left;verticalAlign=top;spacingLeft=4;spacingRight=4;overflow=hidden;rotatable=0;points=[[0,0.5],[1,0.5]];portConstraint=eastwest;" vertex="1" parent="WTj9P_NQEaG9EgnuYuKt-103">
          <mxGeometry y="26.91428484235491" width="115" height="27" as="geometry" />
        </mxCell>
        <mxCell id="WTj9P_NQEaG9EgnuYuKt-105" value="- String status" style="text;strokeColor=none;fillColor=none;align=left;verticalAlign=top;spacingLeft=4;spacingRight=4;overflow=hidden;rotatable=0;points=[[0,0.5],[1,0.5]];portConstraint=eastwest;" vertex="1" parent="WTj9P_NQEaG9EgnuYuKt-103">
          <mxGeometry y="53.91428484235491" width="115" height="27" as="geometry" />
        </mxCell>
        <mxCell id="WTj9P_NQEaG9EgnuYuKt-106" style="line;strokeWidth=1;fillColor=none;align=left;verticalAlign=middle;spacingTop=-1;spacingLeft=3;spacingRight=3;rotatable=0;labelPosition=right;points=[];portConstraint=eastwest;strokeColor=inherit;" vertex="1" parent="WTj9P_NQEaG9EgnuYuKt-103">
          <mxGeometry y="80.9142848423549" width="115" height="13" as="geometry" />
        </mxCell>
        <mxCell id="WTj9P_NQEaG9EgnuYuKt-107" value="TicketingService" style="swimlane;fontStyle=1;align=center;verticalAlign=top;childLayout=stackLayout;horizontal=1;startSize=24.47692401592548;horizontalStack=0;resizeParent=1;resizeParentMax=0;resizeLast=0;collapsible=0;marginBottom=0;" vertex="1" parent="WIyWlLk6GJQsqaUBKTNV-1">
          <mxGeometry x="522" y="20" width="463" height="320.4769240159255" as="geometry" />
        </mxCell>
        <mxCell id="WTj9P_NQEaG9EgnuYuKt-108" value="- ConfigurationRepository configurationRepository" style="text;strokeColor=none;fillColor=none;align=left;verticalAlign=top;spacingLeft=4;spacingRight=4;overflow=hidden;rotatable=0;points=[[0,0.5],[1,0.5]];portConstraint=eastwest;" vertex="1" parent="WTj9P_NQEaG9EgnuYuKt-107">
          <mxGeometry y="24.47692401592548" width="463" height="24" as="geometry" />
        </mxCell>
        <mxCell id="WTj9P_NQEaG9EgnuYuKt-109" value="- Queue ticketPool" style="text;strokeColor=none;fillColor=none;align=left;verticalAlign=top;spacingLeft=4;spacingRight=4;overflow=hidden;rotatable=0;points=[[0,0.5],[1,0.5]];portConstraint=eastwest;" vertex="1" parent="WTj9P_NQEaG9EgnuYuKt-107">
          <mxGeometry y="48.476924015925476" width="463" height="24" as="geometry" />
        </mxCell>
        <mxCell id="WTj9P_NQEaG9EgnuYuKt-110" value="- boolean isRunning" style="text;strokeColor=none;fillColor=none;align=left;verticalAlign=top;spacingLeft=4;spacingRight=4;overflow=hidden;rotatable=0;points=[[0,0.5],[1,0.5]];portConstraint=eastwest;" vertex="1" parent="WTj9P_NQEaG9EgnuYuKt-107">
          <mxGeometry y="72.47692401592548" width="463" height="24" as="geometry" />
        </mxCell>
        <mxCell id="WTj9P_NQEaG9EgnuYuKt-111" value="- String latestTransaction" style="text;strokeColor=none;fillColor=none;align=left;verticalAlign=top;spacingLeft=4;spacingRight=4;overflow=hidden;rotatable=0;points=[[0,0.5],[1,0.5]];portConstraint=eastwest;" vertex="1" parent="WTj9P_NQEaG9EgnuYuKt-107">
          <mxGeometry y="96.47692401592548" width="463" height="24" as="geometry" />
        </mxCell>
        <mxCell id="WTj9P_NQEaG9EgnuYuKt-112" value="- ExecutorService executorService" style="text;strokeColor=none;fillColor=none;align=left;verticalAlign=top;spacingLeft=4;spacingRight=4;overflow=hidden;rotatable=0;points=[[0,0.5],[1,0.5]];portConstraint=eastwest;" vertex="1" parent="WTj9P_NQEaG9EgnuYuKt-107">
          <mxGeometry y="120.47692401592548" width="463" height="24" as="geometry" />
        </mxCell>
        <mxCell id="WTj9P_NQEaG9EgnuYuKt-113" style="line;strokeWidth=1;fillColor=none;align=left;verticalAlign=middle;spacingTop=-1;spacingLeft=3;spacingRight=3;rotatable=0;labelPosition=right;points=[];portConstraint=eastwest;strokeColor=inherit;" vertex="1" parent="WTj9P_NQEaG9EgnuYuKt-107">
          <mxGeometry y="144.47692401592548" width="463" height="8" as="geometry" />
        </mxCell>
        <mxCell id="WTj9P_NQEaG9EgnuYuKt-114" value="+Configuration getConfigurationByid(Long id)" style="text;strokeColor=none;fillColor=none;align=left;verticalAlign=top;spacingLeft=4;spacingRight=4;overflow=hidden;rotatable=0;points=[[0,0.5],[1,0.5]];portConstraint=eastwest;" vertex="1" parent="WTj9P_NQEaG9EgnuYuKt-107">
          <mxGeometry y="152.47692401592548" width="463" height="24" as="geometry" />
        </mxCell>
        <mxCell id="WTj9P_NQEaG9EgnuYuKt-115" value="+Configuration saveConfiguration(Configuration configuration)" style="text;strokeColor=none;fillColor=none;align=left;verticalAlign=top;spacingLeft=4;spacingRight=4;overflow=hidden;rotatable=0;points=[[0,0.5],[1,0.5]];portConstraint=eastwest;" vertex="1" parent="WTj9P_NQEaG9EgnuYuKt-107">
          <mxGeometry y="176.47692401592548" width="463" height="24" as="geometry" />
        </mxCell>
        <mxCell id="WTj9P_NQEaG9EgnuYuKt-116" value="+void startSystem(Configuration configuration)" style="text;strokeColor=none;fillColor=none;align=left;verticalAlign=top;spacingLeft=4;spacingRight=4;overflow=hidden;rotatable=0;points=[[0,0.5],[1,0.5]];portConstraint=eastwest;" vertex="1" parent="WTj9P_NQEaG9EgnuYuKt-107">
          <mxGeometry y="200.47692401592548" width="463" height="24" as="geometry" />
        </mxCell>
        <mxCell id="WTj9P_NQEaG9EgnuYuKt-117" value="+void stopSystem()" style="text;strokeColor=none;fillColor=none;align=left;verticalAlign=top;spacingLeft=4;spacingRight=4;overflow=hidden;rotatable=0;points=[[0,0.5],[1,0.5]];portConstraint=eastwest;" vertex="1" parent="WTj9P_NQEaG9EgnuYuKt-107">
          <mxGeometry y="224.47692401592548" width="463" height="24" as="geometry" />
        </mxCell>
        <mxCell id="WTj9P_NQEaG9EgnuYuKt-118" value="+void resetSystem()" style="text;strokeColor=none;fillColor=none;align=left;verticalAlign=top;spacingLeft=4;spacingRight=4;overflow=hidden;rotatable=0;points=[[0,0.5],[1,0.5]];portConstraint=eastwest;" vertex="1" parent="WTj9P_NQEaG9EgnuYuKt-107">
          <mxGeometry y="248.47692401592548" width="463" height="24" as="geometry" />
        </mxCell>
        <mxCell id="WTj9P_NQEaG9EgnuYuKt-119" value="+int getTicketCount()" style="text;strokeColor=none;fillColor=none;align=left;verticalAlign=top;spacingLeft=4;spacingRight=4;overflow=hidden;rotatable=0;points=[[0,0.5],[1,0.5]];portConstraint=eastwest;" vertex="1" parent="WTj9P_NQEaG9EgnuYuKt-107">
          <mxGeometry y="272.4769240159255" width="463" height="24" as="geometry" />
        </mxCell>
        <mxCell id="WTj9P_NQEaG9EgnuYuKt-120" value="+String getLatestTransaction()" style="text;strokeColor=none;fillColor=none;align=left;verticalAlign=top;spacingLeft=4;spacingRight=4;overflow=hidden;rotatable=0;points=[[0,0.5],[1,0.5]];portConstraint=eastwest;" vertex="1" parent="WTj9P_NQEaG9EgnuYuKt-107">
          <mxGeometry y="296.4769240159255" width="463" height="24" as="geometry" />
        </mxCell>
        <mxCell id="WTj9P_NQEaG9EgnuYuKt-121" value="ConfigurationRepository" style="swimlane;fontStyle=1;align=center;verticalAlign=top;childLayout=stackLayout;horizontal=1;startSize=24.700000762939453;horizontalStack=0;resizeParent=1;resizeParentMax=0;resizeLast=0;collapsible=0;marginBottom=0;" vertex="1" parent="WIyWlLk6GJQsqaUBKTNV-1">
          <mxGeometry x="655" y="396" width="196" height="36.70000076293945" as="geometry" />
        </mxCell>
        <mxCell id="WTj9P_NQEaG9EgnuYuKt-122" style="line;strokeWidth=1;fillColor=none;align=left;verticalAlign=middle;spacingTop=-1;spacingLeft=3;spacingRight=3;rotatable=0;labelPosition=right;points=[];portConstraint=eastwest;strokeColor=inherit;" vertex="1" parent="WTj9P_NQEaG9EgnuYuKt-121">
          <mxGeometry y="24.700000762939453" width="196" height="12" as="geometry" />
        </mxCell>
        <mxCell id="WTj9P_NQEaG9EgnuYuKt-123" value="" style="curved=1;startArrow=none;endArrow=open;endSize=12;exitX=1;exitY=0.5;entryX=0;entryY=0.5;rounded=0;" edge="1" parent="WIyWlLk6GJQsqaUBKTNV-1" source="WTj9P_NQEaG9EgnuYuKt-76" target="WTj9P_NQEaG9EgnuYuKt-107">
          <mxGeometry relative="1" as="geometry">
            <Array as="points" />
          </mxGeometry>
        </mxCell>
        <mxCell id="WTj9P_NQEaG9EgnuYuKt-124" value="" style="curved=1;startArrow=none;endArrow=open;endSize=12;exitX=1;exitY=0.5;entryX=0;entryY=0.22;rounded=0;" edge="1" parent="WIyWlLk6GJQsqaUBKTNV-1" source="WTj9P_NQEaG9EgnuYuKt-107" target="WTj9P_NQEaG9EgnuYuKt-86">
          <mxGeometry relative="1" as="geometry">
            <Array as="points">
              <mxPoint x="1010" y="183" />
            </Array>
          </mxGeometry>
        </mxCell>
        <mxCell id="WTj9P_NQEaG9EgnuYuKt-125" value="" style="curved=1;startArrow=none;endArrow=open;endSize=12;exitX=1;exitY=0.51;entryX=0;entryY=0.78;rounded=0;" edge="1" parent="WIyWlLk6GJQsqaUBKTNV-1" source="WTj9P_NQEaG9EgnuYuKt-121" target="WTj9P_NQEaG9EgnuYuKt-86">
          <mxGeometry relative="1" as="geometry">
            <Array as="points">
              <mxPoint x="1010" y="425" />
            </Array>
          </mxGeometry>
        </mxCell>
      </root>
    </mxGraphModel>
  </diagram>
</mxfile>
